<?xml version='1.0' encoding='UTF-8'?>
<!DOCTYPE svg PUBLIC "-//W3C//DTD SVG 1.0//EN" "http://www.w3.org/TR/2001/REC-SVG-20010904/DTD/svg10.dtd">
<svg viewBox="0 0 1120 220" xmlns="http://www.w3.org/2000/svg" xmlns:inkspace="http://www.inkscape.org/namespaces/inkscape" xmlns:xlink="http://www.w3.org/1999/xlink">
  <defs id="defs_block">
    <filter height="1.504" id="filter_blur" inkspace:collect="always" width="1.1575" x="-0.07875" y="-0.252">
      <feGaussianBlur id="feGaussianBlur3780" inkspace:collect="always" stdDeviation="4.2" />
    </filter>
  </defs>
  <title>blockdiag</title>
  <desc>{
   node_width = 200;
   node_height = 50;
   default_shape = roundedbox;
   default_linecolor = white;
   default_node_color = "#0d99a5";
   default_textcolor = white;

   User -&gt; lb01.vagrant.test;
   lb01.vagrant.test -&gt; app01.vagrant.test;
   lb01.vagrant.test -&gt; app02.vagrant.test;
   app01.vagrant.test -&gt; db01.vagrant.test;
   app02.vagrant.test -&gt; db01.vagrant.test;

  db01.vagrant.test [shape = flowchart.database];
  lb01.vagrant.test [shape = cloud];
  User [shape = actor];
}</desc>
  <polygon fill="rgb(0,0,0)" points="169,63 169,67 183,67 183,71 169,71 169,75 181,87 175,87 167,79 159,87 153,87 165,75 165,71 151,71 151,67 165,67 165,63" style="filter:url(#filter_blur);opacity:0.7;fill-opacity:1" />
  <ellipse cx="167" cy="59" fill="rgb(0,0,0)" rx="6" ry="6" stroke="rgb(255,255,255)" style="filter:url(#filter_blur);opacity:0.7;fill-opacity:1" />
  <path d="M 363 66 A32,10 0 0 1 395 56 A32,7 0 0 1 475 56 A32,10 0 0 1 507 66 A32,10 0 0 1 507 86 A32,25 0 0 1 459 86 A32,25 0 0 1 411 86 A32,25 0 0 1 363 86 A32,10 0 0 1 363 66" fill="rgb(0,0,0)" stroke="rgb(0,0,0)" style="filter:url(#filter_blur);opacity:0.7;fill-opacity:1" />
  <path d="M 603 46 L 787 46 A8,8 0 0 1 795 54 L 795 88 A8,8 0 0 1 787 96 L 603 96 A8,8 0 0 1 595 88 L 595 54 A8,8 0 0 1 603 46" fill="rgb(0,0,0)" stroke="rgb(0,0,0)" style="filter:url(#filter_blur);opacity:0.7;fill-opacity:1" />
  <path d="M 603 136 L 787 136 A8,8 0 0 1 795 144 L 795 178 A8,8 0 0 1 787 186 L 603 186 A8,8 0 0 1 595 178 L 595 144 A8,8 0 0 1 603 136" fill="rgb(0,0,0)" stroke="rgb(0,0,0)" style="filter:url(#filter_blur);opacity:0.7;fill-opacity:1" />
  <path d="M 859 54 A100,8 0 0 1 1059 54 L 1059 88 A100,8 0 0 1 859 88 L 859 54" fill="rgb(0,0,0)" stroke="rgb(0,0,0)" style="filter:url(#filter_blur);opacity:0.7;fill-opacity:1" />
  <polygon fill="rgb(13,153,165)" points="166,57 166,61 180,61 180,65 166,65 166,69 178,81 172,81 164,73 156,81 150,81 162,69 162,65 148,65 148,61 162,61 162,57" stroke="rgb(255,255,255)" />
  <ellipse cx="164" cy="53" fill="rgb(13,153,165)" rx="6" ry="6" stroke="rgb(255,255,255)" />
  <text fill="rgb(255,255,255)" font-family="sans-serif" font-size="11" font-style="normal" font-weight="normal" text-anchor="middle" textLength="23" x="164" y="93">User</text>
  <path d="M 360 60 A32,10 0 0 1 392 50 A32,7 0 0 1 472 50 A32,10 0 0 1 504 60 A32,10 0 0 1 504 80 A32,25 0 0 1 456 80 A32,25 0 0 1 408 80 A32,25 0 0 1 360 80 A32,10 0 0 1 360 60" fill="rgb(13,153,165)" stroke="rgb(255,255,255)" />
  <text fill="rgb(255,255,255)" font-family="sans-serif" font-size="11" font-style="normal" font-weight="normal" text-anchor="middle" textLength="87" x="432" y="71">lb01.vagrant.test</text>
  <path d="M 600 40 L 784 40 A8,8 0 0 1 792 48 L 792 82 A8,8 0 0 1 784 90 L 600 90 A8,8 0 0 1 592 82 L 592 48 A8,8 0 0 1 600 40" fill="rgb(13,153,165)" stroke="rgb(255,255,255)" />
  <text fill="rgb(255,255,255)" font-family="sans-serif" font-size="11" font-style="normal" font-weight="normal" text-anchor="middle" textLength="97" x="692" y="71">app01.vagrant.test</text>
  <path d="M 600 130 L 784 130 A8,8 0 0 1 792 138 L 792 172 A8,8 0 0 1 784 180 L 600 180 A8,8 0 0 1 592 172 L 592 138 A8,8 0 0 1 600 130" fill="rgb(13,153,165)" stroke="rgb(255,255,255)" />
  <text fill="rgb(255,255,255)" font-family="sans-serif" font-size="11" font-style="normal" font-weight="normal" text-anchor="middle" textLength="97" x="692" y="161">app02.vagrant.test</text>
  <path d="M 856 48 A100,8 0 0 1 1056 48 L 1056 82 A100,8 0 0 1 856 82 L 856 48" fill="rgb(13,153,165)" stroke="rgb(255,255,255)" />
  <path d="M 1056 48 A100,8 0 0 1 856 48" fill="rgb(13,153,165)" stroke="rgb(255,255,255)" />
  <text fill="rgb(255,255,255)" font-family="sans-serif" font-size="11" font-style="normal" font-weight="normal" text-anchor="middle" textLength="91" x="956" y="75">db01.vagrant.test</text>
  <path d="M 180 65 L 320 65" fill="none" stroke="rgb(255,255,255)" />
  <polygon fill="rgb(255,255,255)" points="327,65 320,61 320,69 327,65" stroke="rgb(255,255,255)" />
  <path d="M 528 65 L 584 65" fill="none" stroke="rgb(255,255,255)" />
  <polygon fill="rgb(255,255,255)" points="591,65 584,61 584,69 591,65" stroke="rgb(255,255,255)" />
  <path d="M 528 65 L 560 65" fill="none" stroke="rgb(255,255,255)" />
  <path d="M 560 65 L 560 155" fill="none" stroke="rgb(255,255,255)" />
  <path d="M 560 155 L 584 155" fill="none" stroke="rgb(255,255,255)" />
  <polygon fill="rgb(255,255,255)" points="591,155 584,151 584,159 591,155" stroke="rgb(255,255,255)" />
  <path d="M 792 65 L 848 65" fill="none" stroke="rgb(255,255,255)" />
  <polygon fill="rgb(255,255,255)" points="855,65 848,61 848,69 855,65" stroke="rgb(255,255,255)" />
  <path d="M 792 155 L 840 155" fill="none" stroke="rgb(255,255,255)" />
  <path d="M 840 155 L 840 65" fill="none" stroke="rgb(255,255,255)" />
  <path d="M 840 65 L 848 65" fill="none" stroke="rgb(255,255,255)" />
  <polygon fill="rgb(255,255,255)" points="855,65 848,61 848,69 855,65" stroke="rgb(255,255,255)" />
</svg>
